<svg viewBox="0 0 12 12" fill="#8B8BA9" xmlns="http://www.w3.org/2000/svg">
<path d="M6.46668 10.8666C6.5889 10.7444 6.65279 10.5888 6.65834 10.4C6.6639 10.2111 6.60557 10.0555 6.48334 9.93328L3.21668 6.66662H10.6667C10.8556 6.66662 11.0139 6.60273 11.1417 6.47495C11.2695 6.34717 11.3333 6.18884 11.3333 5.99995C11.3333 5.81106 11.2695 5.65273 11.1417 5.52495C11.0139 5.39717 10.8556 5.33328 10.6667 5.33328H3.21668L6.48334 2.06662C6.60557 1.9444 6.6639 1.78884 6.65834 1.59995C6.65279 1.41106 6.5889 1.25551 6.46668 1.13328C6.34445 1.01106 6.1889 0.949951 6.00001 0.949951C5.81112 0.949951 5.65557 1.01106 5.53334 1.13328L1.13334 5.53328C1.06668 5.58884 1.01945 5.65828 0.991676 5.74162C0.963899 5.82495 0.95001 5.91106 0.95001 5.99995C0.95001 6.08884 0.963899 6.17217 0.991676 6.24995C1.01945 6.32773 1.06668 6.39995 1.13334 6.46662L5.53334 10.8666C5.65557 10.9888 5.81112 11.05 6.00001 11.05C6.1889 11.05 6.34445 10.9888 6.46668 10.8666Z" />
</svg>
