<svg  viewBox="0 0 8 8" fill="#F4F4F6" xmlns="http://www.w3.org/2000/svg">
<mask id="mask0_69_359" style="mask-type:alpha" maskUnits="userSpaceOnUse" x="0" y="0" width="8" height="8">
<rect width="8" height="8"/>
</mask>
<g mask="url(#mask0_69_359)">
<path d="M2.66667 5.28345L6.73334 1.21678C6.85556 1.09456 6.99723 1.03345 7.15834 1.03345C7.31945 1.03345 7.46112 1.09456 7.58334 1.21678C7.70556 1.339 7.76667 1.48067 7.76667 1.64178C7.76667 1.80289 7.70556 1.94456 7.58334 2.06678L3.08334 6.56678C2.96112 6.689 2.81945 6.75011 2.65834 6.75011C2.49723 6.75011 2.35556 6.689 2.23334 6.56678L0.416671 4.75011C0.294449 4.62789 0.233337 4.48623 0.233337 4.32511C0.233337 4.164 0.294449 4.02234 0.416671 3.90011C0.538893 3.77789 0.68056 3.71678 0.841671 3.71678C1.00278 3.71678 1.14445 3.77789 1.26667 3.90011L2.66667 5.28345Z"/>
</g>
</svg>
