<svg viewBox="0 0 24 24" fill="#6A6A7E" xmlns="http://www.w3.org/2000/svg">
<g mask="url(#mask0_165_329)">
<path d="M12.9999 12.5999V8.9999C12.9999 8.71657 12.9041 8.47907 12.7124 8.2874C12.5207 8.09574 12.2832 7.9999 11.9999 7.9999C11.7166 7.9999 11.4791 8.09574 11.2874 8.2874C11.0957 8.47907 10.9999 8.71657 10.9999 8.9999V12.9749C10.9999 13.1082 11.0249 13.2374 11.0749 13.3624C11.1249 13.4874 11.1999 13.5999 11.2999 13.6999L14.0999 16.4999C14.2832 16.6832 14.5166 16.7749 14.7999 16.7749C15.0832 16.7749 15.3166 16.6832 15.4999 16.4999C15.6832 16.3166 15.7749 16.0832 15.7749 15.7999C15.7749 15.5166 15.6832 15.2832 15.4999 15.0999L12.9999 12.5999ZM11.9999 21.9999C10.7499 21.9999 9.57907 21.7624 8.4874 21.2874C7.39574 20.8124 6.44574 20.1707 5.6374 19.3624C4.82907 18.5541 4.1874 17.6041 3.7124 16.5124C3.2374 15.4207 2.9999 14.2499 2.9999 12.9999C2.9999 11.7499 3.2374 10.5791 3.7124 9.4874C4.1874 8.39574 4.82907 7.44574 5.6374 6.6374C6.44574 5.82907 7.39574 5.1874 8.4874 4.7124C9.57907 4.2374 10.7499 3.9999 11.9999 3.9999C13.2499 3.9999 14.4207 4.2374 15.5124 4.7124C16.6041 5.1874 17.5541 5.82907 18.3624 6.6374C19.1707 7.44574 19.8124 8.39574 20.2874 9.4874C20.7624 10.5791 20.9999 11.7499 20.9999 12.9999C20.9999 14.2499 20.7624 15.4207 20.2874 16.5124C19.8124 17.6041 19.1707 18.5541 18.3624 19.3624C17.5541 20.1707 16.6041 20.8124 15.5124 21.2874C14.4207 21.7624 13.2499 21.9999 11.9999 21.9999ZM2.0499 7.2999C1.86657 7.11657 1.7749 6.88324 1.7749 6.5999C1.7749 6.31657 1.86657 6.08324 2.0499 5.8999L4.8999 3.0499C5.08324 2.86657 5.31657 2.7749 5.5999 2.7749C5.88324 2.7749 6.11657 2.86657 6.2999 3.0499C6.48324 3.23324 6.5749 3.46657 6.5749 3.7499C6.5749 4.03324 6.48324 4.26657 6.2999 4.4499L3.4499 7.2999C3.26657 7.48324 3.03324 7.5749 2.7499 7.5749C2.46657 7.5749 2.23324 7.48324 2.0499 7.2999ZM21.9499 7.2999C21.7666 7.48324 21.5332 7.5749 21.2499 7.5749C20.9666 7.5749 20.7332 7.48324 20.5499 7.2999L17.6999 4.4499C17.5166 4.26657 17.4249 4.03324 17.4249 3.7499C17.4249 3.46657 17.5166 3.23324 17.6999 3.0499C17.8832 2.86657 18.1166 2.7749 18.3999 2.7749C18.6832 2.7749 18.9166 2.86657 19.0999 3.0499L21.9499 5.8999C22.1332 6.08324 22.2249 6.31657 22.2249 6.5999C22.2249 6.88324 22.1332 7.11657 21.9499 7.2999Z" />
</g>
</svg>
