<svg viewBox="0 0 16 16" fill="#37357B" xmlns="http://www.w3.org/2000/svg">
<path d="M7.5 4.4C7.14643 4.4 6.84375 4.2825 6.59196 4.0475C6.34018 3.8125 6.21429 3.53 6.21429 3.2C6.21429 2.87 6.34018 2.5875 6.59196 2.3525C6.84375 2.1175 7.14643 2 7.5 2C7.85357 2 8.15625 2.1175 8.40804 2.3525C8.65982 2.5875 8.78571 2.87 8.78571 3.2C8.78571 3.53 8.65982 3.8125 8.40804 4.0475C8.15625 4.2825 7.85357 4.4 7.5 4.4ZM11.3571 14C11.175 14 11.0223 13.9425 10.8991 13.8275C10.7759 13.7125 10.7143 13.57 10.7143 13.4V11H7.5C7.14643 11 6.84375 10.8825 6.59196 10.6475C6.34018 10.4125 6.21429 10.13 6.21429 9.8V6.2C6.21429 5.85 6.33482 5.5625 6.57589 5.3375C6.81696 5.1125 7.125 5 7.5 5C7.75714 5 7.97946 5.0525 8.16696 5.1575C8.35446 5.2625 8.55536 5.43 8.76964 5.66C9.2625 6.22 9.7125 6.625 10.1196 6.875C10.5268 7.125 10.9661 7.285 11.4375 7.355C11.5982 7.375 11.7321 7.44 11.8393 7.55C11.9464 7.66 12 7.79 12 7.94C12 8.13 11.9304 8.285 11.7911 8.405C11.6518 8.525 11.4911 8.57 11.3089 8.54C10.8482 8.46 10.3955 8.3175 9.95089 8.1125C9.50625 7.9075 9.11786 7.68 8.78571 7.43V9.5H10.7143C11.0679 9.5 11.3705 9.6175 11.6223 9.8525C11.8741 10.0875 12 10.37 12 10.7V13.4C12 13.57 11.9384 13.7125 11.8152 13.8275C11.692 13.9425 11.5393 14 11.3571 14ZM6.21429 14C5.325 14 4.56696 13.7075 3.94018 13.1225C3.31339 12.5375 3 11.83 3 11C3 10.28 3.24375 9.645 3.73125 9.095C4.21875 8.545 4.83214 8.2 5.57143 8.06V9.29C5.19643 9.43 4.88839 9.6525 4.64732 9.9575C4.40625 10.2625 4.28571 10.61 4.28571 11C4.28571 11.5 4.47321 11.925 4.84821 12.275C5.22321 12.625 5.67857 12.8 6.21429 12.8C6.63214 12.8 7.00446 12.6875 7.33125 12.4625C7.65804 12.2375 7.89643 11.95 8.04643 11.6H9.36429C9.21429 12.29 8.84464 12.8625 8.25536 13.3175C7.66607 13.7725 6.98571 14 6.21429 14Z" />
</svg>
