<svg width="16" height="17" viewBox="0 0 16 17"  xmlns="http://www.w3.org/2000/svg">
<mask id="mask0_222_1417" style="mask-type:alpha" maskUnits="userSpaceOnUse" x="0" y="0" width="16" height="17">
<rect y="0.5" width="16" height="16" fill="#D9D9D9"/>
</mask>
<g mask="url(#mask0_222_1417)">
<path d="M8.66699 9.26634V7.16634C8.66699 6.97745 8.6031 6.81912 8.47533 6.69134C8.34755 6.56356 8.18921 6.49967 8.00033 6.49967C7.81144 6.49967 7.6531 6.56356 7.52533 6.69134C7.39755 6.81912 7.33366 6.97745 7.33366 7.16634V9.26634L6.73366 8.68301C6.61144 8.56079 6.45866 8.49967 6.27533 8.49967C6.09199 8.49967 5.93366 8.56634 5.80033 8.69967C5.6781 8.8219 5.61699 8.97745 5.61699 9.16634C5.61699 9.35523 5.6781 9.51079 5.80033 9.63301L7.53366 11.3663C7.66699 11.4997 7.82255 11.5663 8.00033 11.5663C8.1781 11.5663 8.33366 11.4997 8.46699 11.3663L10.2003 9.63301C10.3225 9.51079 10.3864 9.35801 10.392 9.17467C10.3975 8.99134 10.3337 8.83301 10.2003 8.69967C10.0781 8.57745 9.92533 8.51356 9.74199 8.50801C9.55866 8.50245 9.40033 8.56079 9.26699 8.68301L8.66699 9.26634ZM4.00033 15.1663C3.63366 15.1663 3.31977 15.0358 3.05866 14.7747C2.79755 14.5136 2.66699 14.1997 2.66699 13.833V6.38301C2.66699 6.20523 2.70033 6.03579 2.76699 5.87467C2.83366 5.71356 2.9281 5.5719 3.05033 5.44967L6.28366 2.21634C6.40588 2.09412 6.54755 1.99967 6.70866 1.93301C6.86977 1.86634 7.03921 1.83301 7.21699 1.83301H12.0003C12.367 1.83301 12.6809 1.96356 12.942 2.22467C13.2031 2.48579 13.3337 2.79967 13.3337 3.16634V13.833C13.3337 14.1997 13.2031 14.5136 12.942 14.7747C12.6809 15.0358 12.367 15.1663 12.0003 15.1663H4.00033ZM4.00033 13.833H12.0003V3.16634H7.23366L4.00033 6.39967V13.833Z" fill="#37357B"/>
</g>
</svg>
