<svg width="20" height="20" viewBox="0 0 20 20" fill="none" xmlns="http://www.w3.org/2000/svg">
<mask id="mask0_222_1477" style="mask-type:alpha" maskUnits="userSpaceOnUse" x="0" y="0" width="20" height="20">
<rect width="20" height="20" fill="#6A6A7E"/>
</mask>
<g mask="url(#mask0_222_1477)">
<path d="M9.99967 9.20817C10.9163 9.20817 11.6941 8.88525 12.333 8.23942C12.9719 7.59359 13.2913 6.81234 13.2913 5.89567V3.4165H6.70801V5.89567C6.70801 6.81234 7.02745 7.59359 7.66634 8.23942C8.30523 8.88525 9.08301 9.20817 9.99967 9.20817ZM15.7913 18.3332H4.20801C3.9719 18.3332 3.76704 18.2464 3.59342 18.0728C3.41981 17.8991 3.33301 17.6943 3.33301 17.4582C3.33301 17.2221 3.41981 17.0172 3.59342 16.8436C3.76704 16.67 3.9719 16.5832 4.20801 16.5832H4.95801V14.1248C4.95801 13.2915 5.14204 12.5137 5.51009 11.7915C5.87815 11.0693 6.39551 10.4721 7.06217 9.99984C6.39551 9.52762 5.87815 8.93039 5.51009 8.20817C5.14204 7.48595 4.95801 6.71512 4.95801 5.89567V3.4165H4.20801C3.9719 3.4165 3.76704 3.3297 3.59342 3.15609C3.41981 2.98248 3.33301 2.77762 3.33301 2.5415C3.33301 2.30539 3.41981 2.10053 3.59342 1.92692C3.76704 1.75331 3.9719 1.6665 4.20801 1.6665H15.7913C16.0275 1.6665 16.2323 1.75331 16.4059 1.92692C16.5795 2.10053 16.6663 2.30539 16.6663 2.5415C16.6663 2.77762 16.5795 2.98248 16.4059 3.15609C16.2323 3.3297 16.0275 3.4165 15.7913 3.4165H15.0413V5.89567C15.0413 6.71512 14.8573 7.48595 14.4893 8.20817C14.1212 8.93039 13.6038 9.52762 12.9372 9.99984C13.6038 10.4721 14.1212 11.0693 14.4893 11.7915C14.8573 12.5137 15.0413 13.2915 15.0413 14.1248V16.5832H15.7913C16.0275 16.5832 16.2323 16.67 16.4059 16.8436C16.5795 17.0172 16.6663 17.2221 16.6663 17.4582C16.6663 17.6943 16.5795 17.8991 16.4059 18.0728C16.2323 18.2464 16.0275 18.3332 15.7913 18.3332Z" fill="#6A6A7E"/>
</g>
</svg>
