<svg viewBox="0 0 16 16" xmlns="http://www.w3.org/2000/svg">
<mask id="mask0_870_515" style="mask-type:luminance" maskUnits="userSpaceOnUse" x="0" y="2" width="16" height="12">
<path d="M14.8571 2.28564H1.14286C0.511675 2.28564 0 2.79732 0 3.4285V12.5714C0 13.2025 0.511675 13.7142 1.14286 13.7142H14.8571C15.4883 13.7142 16 13.2025 16 12.5714V3.4285C16 2.79732 15.4883 2.28564 14.8571 2.28564Z" fill="white"/>
</mask>
<g mask="url(#mask0_870_515)">
<path d="M16 2.28564H0V13.7142H16V2.28564Z" fill="url(#paint0_linear_870_515)"/>
<path d="M16 2.28564H0V4.57136H16V2.28564Z" fill="url(#paint1_linear_870_515)"/>
<path d="M16 4.57129H0V6.857H16V4.57129Z" fill="url(#paint2_linear_870_515)"/>
<path d="M16 6.85693H0V9.14265H16V6.85693Z" fill="url(#paint3_linear_870_515)"/>
<path d="M16 9.14307H0V11.4288H16V9.14307Z" fill="url(#paint4_linear_870_515)"/>
<path d="M16 11.4287H0V13.7144H16V11.4287Z" fill="url(#paint5_linear_870_515)"/>
</g>
<defs>
<linearGradient id="paint0_linear_870_515" x1="8" y1="2.28564" x2="8" y2="13.7142" gradientUnits="userSpaceOnUse">
<stop stop-color="white"/>
<stop offset="1" stop-color="#F0F0F0"/>
</linearGradient>
<linearGradient id="paint1_linear_870_515" x1="8" y1="2.28564" x2="8" y2="4.57136" gradientUnits="userSpaceOnUse">
<stop stop-color="#F71E24"/>
<stop offset="1" stop-color="#FB141B"/>
</linearGradient>
<linearGradient id="paint2_linear_870_515" x1="8" y1="4.57129" x2="8" y2="6.857" gradientUnits="userSpaceOnUse">
<stop stop-color="#FB6C2C"/>
<stop offset="1" stop-color="#FC6420"/>
</linearGradient>
<linearGradient id="paint3_linear_870_515" x1="8" y1="6.85693" x2="8" y2="9.14265" gradientUnits="userSpaceOnUse">
<stop stop-color="#FDFC42"/>
<stop offset="1" stop-color="#FFFD38"/>
</linearGradient>
<linearGradient id="paint4_linear_870_515" x1="8" y1="9.14307" x2="8" y2="11.4288" gradientUnits="userSpaceOnUse">
<stop stop-color="#238F35"/>
<stop offset="1" stop-color="#1C7E2C"/>
</linearGradient>
<linearGradient id="paint5_linear_870_515" x1="8" y1="11.4287" x2="8" y2="13.7144" gradientUnits="userSpaceOnUse">
<stop stop-color="#0F62FA"/>
<stop offset="1" stop-color="#0059FC"/>
</linearGradient>
</defs>
</svg>
