<svg width="24" height="24" viewBox="0 0 24 24" fill="#424252" xmlns="http://www.w3.org/2000/svg">
<mask id="mask0_432_129" style="mask-type:alpha" maskUnits="userSpaceOnUse" x="0" y="0" width="24" height="24">
<rect width="24" height="24" />
</mask>
<g mask="url(#mask0_432_129)">
<path d="M4 20C3.45 20 2.97917 19.8042 2.5875 19.4125C2.19583 19.0208 2 18.55 2 18V6C2 5.45 2.19583 4.97917 2.5875 4.5875C2.97917 4.19583 3.45 4 4 4H20C20.55 4 21.0208 4.19583 21.4125 4.5875C21.8042 4.97917 22 5.45 22 6V18C22 18.55 21.8042 19.0208 21.4125 19.4125C21.0208 19.8042 20.55 20 20 20H4ZM7.075 15C7.24167 15 7.37917 14.9458 7.4875 14.8375C7.59583 14.7292 7.65 14.5917 7.65 14.425V9.55C7.65 9.4 7.59583 9.27083 7.4875 9.1625C7.37917 9.05417 7.25 9 7.1 9C7 9 6.89167 9.02083 6.775 9.0625C6.65833 9.10417 6.55833 9.15 6.475 9.2L5.425 9.95C5.29167 10.0333 5.21667 10.1458 5.2 10.2875C5.18333 10.4292 5.21667 10.5667 5.3 10.7C5.38333 10.8333 5.49167 10.9083 5.625 10.925C5.75833 10.9417 5.89167 10.9083 6.025 10.825L6.5 10.5V14.425C6.5 14.5917 6.55417 14.7292 6.6625 14.8375C6.77083 14.9458 6.90833 15 7.075 15ZM10.2 15H13C13.1333 15 13.25 14.95 13.35 14.85C13.45 14.75 13.5 14.6333 13.5 14.5C13.5 14.3667 13.45 14.25 13.35 14.15C13.25 14.05 13.1333 14 13 14H11.15L11.1 13.95C11.45 13.6167 11.7375 13.3333 11.9625 13.1C12.1875 12.8667 12.3667 12.6833 12.5 12.55C12.8 12.25 13.025 11.95 13.175 11.65C13.325 11.35 13.4 11.0333 13.4 10.7C13.4 10.2167 13.2167 9.8125 12.85 9.4875C12.4833 9.1625 12.0167 9 11.45 9C11.1167 9 10.8042 9.07917 10.5125 9.2375C10.2208 9.39583 9.98333 9.60833 9.8 9.875C9.71667 9.99167 9.7 10.1167 9.75 10.25C9.8 10.3833 9.9 10.4833 10.05 10.55C10.1667 10.6 10.2917 10.6042 10.425 10.5625C10.5583 10.5208 10.6917 10.4333 10.825 10.3C10.9083 10.2167 11.0042 10.1542 11.1125 10.1125C11.2208 10.0708 11.3333 10.05 11.45 10.05C11.7 10.05 11.9042 10.1167 12.0625 10.25C12.2208 10.3833 12.3 10.55 12.3 10.75C12.3 10.9333 12.2667 11.1042 12.2 11.2625C12.1333 11.4208 11.9833 11.6167 11.75 11.85L9.875 13.725C9.79167 13.8083 9.725 13.9125 9.675 14.0375C9.625 14.1625 9.6 14.2833 9.6 14.4C9.6 14.5667 9.65833 14.7083 9.775 14.825C9.89167 14.9417 10.0333 15 10.2 15ZM17 15C17.6 15 18.0833 14.8333 18.45 14.5C18.8167 14.1667 19 13.7333 19 13.2C19 12.9 18.9167 12.6333 18.75 12.4C18.5833 12.1667 18.35 11.9833 18.05 11.85V11.8C18.2833 11.6667 18.4667 11.4958 18.6 11.2875C18.7333 11.0792 18.8 10.8333 18.8 10.55C18.8 10.1 18.625 9.72917 18.275 9.4375C17.925 9.14583 17.4833 9 16.95 9C16.65 9 16.3625 9.06667 16.0875 9.2C15.8125 9.33333 15.5833 9.50833 15.4 9.725C15.3 9.85833 15.275 9.99583 15.325 10.1375C15.375 10.2792 15.4917 10.3917 15.675 10.475C15.775 10.5083 15.8792 10.5083 15.9875 10.475C16.0958 10.4417 16.2083 10.3667 16.325 10.25C16.4083 10.1667 16.5 10.1042 16.6 10.0625C16.7 10.0208 16.8167 10 16.95 10C17.1667 10 17.3458 10.0625 17.4875 10.1875C17.6292 10.3125 17.7 10.4667 17.7 10.65C17.7 10.8833 17.6167 11.0667 17.45 11.2C17.2833 11.3333 17.0667 11.4 16.8 11.4C16.7 11.4 16.6 11.45 16.5 11.55C16.4 11.65 16.35 11.7667 16.35 11.9C16.35 12.0333 16.4 12.15 16.5 12.25C16.6 12.35 16.7167 12.4 16.85 12.4C17.1833 12.4 17.4417 12.4667 17.625 12.6C17.8083 12.7333 17.9 12.9167 17.9 13.15C17.9 13.3667 17.8083 13.5542 17.625 13.7125C17.4417 13.8708 17.2333 13.95 17 13.95C16.8167 13.95 16.6625 13.9208 16.5375 13.8625C16.4125 13.8042 16.3 13.7083 16.2 13.575C16.1 13.4417 15.9792 13.35 15.8375 13.3C15.6958 13.25 15.5583 13.25 15.425 13.3C15.2917 13.3667 15.1917 13.4667 15.125 13.6C15.0583 13.7333 15.0583 13.8667 15.125 14C15.3083 14.3333 15.5583 14.5833 15.875 14.75C16.1917 14.9167 16.5667 15 17 15Z" />
</g>
</svg>
