<svg viewBox="0 0 16 16" fill="#C4946B" xmlns="http://www.w3.org/2000/svg">
<path d="M5.5 7.25H4.25C3.91848 7.25 3.60054 7.3817 3.36612 7.61612C3.1317 7.85054 3 8.16848 3 8.5V9.5C3 10.8261 3.52678 12.0979 4.46447 13.0355C5.40215 13.9732 6.67392 14.5 8 14.5C9.32608 14.5 10.5979 13.9732 11.5355 13.0355C12.4732 12.0979 13 10.8261 13 9.5V6.75C13 6.41848 12.8683 6.10054 12.6339 5.86612C12.3995 5.6317 12.0815 5.5 11.75 5.5C11.4185 5.5 11.1005 5.6317 10.8661 5.86612C10.6317 6.10054 10.5 6.41848 10.5 6.75V5.75C10.5 5.41848 10.3683 5.10054 10.1339 4.86612C9.89946 4.6317 9.58152 4.5 9.25 4.5C8.91848 4.5 8.60054 4.6317 8.36612 4.86612C8.1317 5.10054 8 5.41848 8 5.75C8 5.41848 7.8683 5.10054 7.63388 4.86612C7.39946 4.6317 7.08152 4.5 6.75 4.5C6.41848 4.5 6.10054 4.6317 5.86612 4.86612C5.6317 5.10054 5.5 5.41848 5.5 5.75V7.25Z" />
<path d="M11.75 5C11.4583 4.99965 11.1712 5.07266 10.9151 5.21232C10.8228 4.92555 10.6578 4.6675 10.4364 4.46323C10.2149 4.25895 9.94441 4.11537 9.65112 4.04641C9.35783 3.97745 9.05169 3.98546 8.7624 4.06964C8.47311 4.15383 8.21049 4.31135 8 4.52692C7.75703 4.27814 7.4454 4.10744 7.10494 4.03664C6.76447 3.96583 6.41063 3.99813 6.08862 4.12942C5.76661 4.2607 5.49104 4.485 5.29713 4.77367C5.10322 5.06233 4.99977 5.40225 5 5.75V6.75H4.25C3.78603 6.75052 3.34121 6.93506 3.01314 7.26314C2.68506 7.59122 2.50052 8.03603 2.5 8.5V9.5C2.5 10.9587 3.07946 12.3576 4.11091 13.3891C5.14236 14.4205 6.54131 15 8 15C9.45869 15 10.8576 14.4205 11.8891 13.3891C12.9205 12.3576 13.5 10.9587 13.5 9.5V6.75C13.4995 6.28603 13.3149 5.84122 12.9869 5.51314C12.6588 5.18506 12.214 5.00052 11.75 5ZM12.5 9.5C12.5 10.6935 12.0259 11.8381 11.182 12.682C10.3381 13.5259 9.19347 14 8 14C6.80653 14 5.66193 13.5259 4.81802 12.682C3.97411 11.8381 3.5 10.6935 3.5 9.5V8.5C3.50022 8.30116 3.57931 8.11052 3.71992 7.96992C3.86052 7.82931 4.05116 7.75022 4.25 7.75H5V9.25C5 9.38261 5.05268 9.50979 5.14645 9.60356C5.24021 9.69732 5.36739 9.75 5.5 9.75C5.63261 9.75 5.75979 9.69732 5.85355 9.60356C5.94732 9.50979 6 9.38261 6 9.25V5.75C6 5.55109 6.07902 5.36032 6.21967 5.21967C6.36032 5.07902 6.55109 5 6.75 5C6.94891 5 7.13968 5.07902 7.28033 5.21967C7.42098 5.36032 7.5 5.55109 7.5 5.75V7.75C7.5 7.88261 7.55268 8.00979 7.64645 8.10356C7.74021 8.19732 7.86739 8.25 8 8.25C8.13261 8.25 8.25979 8.19732 8.35355 8.10356C8.44732 8.00979 8.5 7.88261 8.5 7.75V5.75C8.5 5.55109 8.57902 5.36032 8.71967 5.21967C8.86032 5.07902 9.05109 5 9.25 5C9.44891 5 9.63968 5.07902 9.78033 5.21967C9.92098 5.36032 10 5.55109 10 5.75V7.75C10 7.88261 10.0527 8.00979 10.1464 8.10356C10.2402 8.19732 10.3674 8.25 10.5 8.25C10.6326 8.25 10.7598 8.19732 10.8536 8.10356C10.9473 8.00979 11 7.88261 11 7.75V6.75C11 6.55109 11.079 6.36032 11.2197 6.21967C11.3603 6.07902 11.5511 6 11.75 6C11.9489 6 12.1397 6.07902 12.2803 6.21967C12.421 6.36032 12.5 6.55109 12.5 6.75V9.5Z" fill="#31313D"/>
</svg>
