<svg width="24" height="24" viewBox="0 0 24 24" fill="none" xmlns="http://www.w3.org/2000/svg">
<mask id="mask0_217_1056" style="mask-type:alpha" maskUnits="userSpaceOnUse" x="0" y="0" width="24" height="24">
<rect width="24" height="24" fill="#6A6A7E"/>
</mask>
<g mask="url(#mask0_217_1056)">
<path d="M7.04982 21.05C6.86649 21.2 6.67066 21.2083 6.46232 21.075C6.25399 20.9417 6.19149 20.7583 6.27482 20.525L8.14982 14.4L3.27482 10.9C3.07482 10.7667 3.01232 10.5833 3.08732 10.35C3.16232 10.1167 3.31649 10 3.54982 10H9.59982L11.5248 3.6C11.5582 3.46667 11.6207 3.375 11.7123 3.325C11.804 3.275 11.8998 3.25 11.9998 3.25C12.0998 3.25 12.1957 3.275 12.2873 3.325C12.379 3.375 12.4415 3.46667 12.4748 3.6L14.3998 10H20.4498C20.6832 10 20.8373 10.1167 20.9123 10.35C20.9873 10.5833 20.9248 10.7667 20.7248 10.9L15.8498 14.4L17.7248 20.525C17.8082 20.7583 17.7457 20.9417 17.5373 21.075C17.329 21.2083 17.1332 21.2 16.9498 21.05L11.9998 17.3L7.04982 21.05Z" fill="#6A6A7E"/>
</g>
</svg>
