<svg viewBox="0 0 528 445"  xmlns="http://www.w3.org/2000/svg">
<g clip-path="url(#clip0_31_10)">
<path d="M511.886 236.072C509.811 235.777 507.833 235.004 506.108 233.814C504.383 232.623 502.958 231.048 501.945 229.213C500.932 227.377 500.358 225.331 500.27 223.236C500.182 221.141 500.581 219.054 501.437 217.14C502.292 215.225 503.58 213.536 505.199 212.205C506.817 210.873 508.723 209.936 510.766 209.468C512.808 209 514.931 209.012 516.968 209.505C519.005 209.998 520.899 210.958 522.502 212.308L518.927 218.299L524.642 214.579C526.781 217.443 527.696 221.04 527.186 224.579C527.013 225.821 526.664 227.033 526.151 228.177C524.954 230.867 522.914 233.092 520.34 234.517C517.766 235.941 514.798 236.487 511.886 236.072Z" fill="#57B894"/>
<path d="M459.506 299.726C463.318 295.043 461.341 288.034 458.553 282.677C455.766 277.319 452.211 271.62 453.436 265.705C455.198 257.205 465.2 253.896 473.286 250.755C479.286 248.424 484.989 245.389 490.275 241.714C492.394 240.24 494.478 238.629 495.956 236.513C498.086 233.464 498.767 229.664 499.369 225.994C501.373 213.767 503.089 201.498 504.515 189.186" stroke="#3F3D56" stroke-width="0.650123" stroke-miterlimit="10"/>
<path d="M512.237 234.226C510.163 233.931 508.185 233.158 506.46 231.968C504.735 230.778 503.31 229.203 502.297 227.367C501.283 225.532 500.71 223.486 500.622 221.39C500.534 219.295 500.933 217.208 501.788 215.294C502.644 213.38 503.931 211.69 505.55 210.359C507.169 209.028 509.075 208.091 511.117 207.622C513.16 207.154 515.283 207.167 517.32 207.659C519.356 208.152 521.251 209.112 522.854 210.462L519.279 216.453L524.994 212.733C527.132 215.598 528.047 219.194 527.538 222.733C527.364 223.976 527.016 225.187 526.503 226.332C525.306 229.021 523.266 231.246 520.692 232.671C518.118 234.096 515.149 234.642 512.237 234.226Z" stroke="#3F3D56" stroke-width="0.650123" stroke-miterlimit="10"/>
<path d="M517.907 193.603C518.228 191.356 517.979 189.065 517.183 186.939C516.386 184.814 515.068 182.923 513.35 181.442L509.252 186.764L510.701 179.651C508.15 178.339 505.249 177.871 502.416 178.317C499.583 178.762 496.964 180.097 494.939 182.129C492.913 184.16 491.585 186.784 491.146 189.62C490.707 192.456 491.18 195.359 492.497 197.908C493.814 200.458 495.907 202.523 498.473 203.805C501.039 205.087 503.945 205.519 506.773 205.04C509.6 204.561 512.203 203.195 514.204 201.139C516.205 199.084 517.502 196.445 517.907 193.603Z" fill="#57B894"/>
<path d="M518.376 191.142C518.697 188.895 518.448 186.604 517.652 184.478C516.855 182.353 515.537 180.463 513.819 178.981L509.721 184.303L511.17 177.19C508.619 175.878 505.718 175.411 502.885 175.856C500.052 176.301 497.433 177.636 495.408 179.668C493.382 181.699 492.054 184.323 491.615 187.159C491.176 189.996 491.649 192.898 492.966 195.448C494.283 197.997 496.376 200.062 498.942 201.344C501.507 202.626 504.414 203.059 507.242 202.579C510.069 202.1 512.672 200.734 514.673 198.679C516.674 196.623 517.971 193.984 518.376 191.142Z" stroke="#3F3D56" stroke-width="0.650123" stroke-miterlimit="10"/>
<path d="M475.319 251.992C472.03 251.522 469.029 249.858 466.887 247.316C464.746 244.774 463.614 241.532 463.708 238.209C463.801 234.885 465.113 231.712 467.394 229.295C469.674 226.877 472.764 225.384 476.074 225.1L474.961 230.566L479.105 225.18C479.117 225.181 479.13 225.182 479.142 225.185C482.694 225.692 485.899 227.591 488.052 230.463C490.205 233.336 491.13 236.946 490.623 240.501C490.116 244.056 488.219 247.264 485.349 249.419C482.479 251.574 478.871 252.499 475.319 251.992Z" fill="#57B894"/>
<path d="M475.89 249.551C472.601 249.081 469.6 247.416 467.458 244.874C465.317 242.332 464.185 239.091 464.278 235.767C464.372 232.444 465.684 229.271 467.965 226.853C470.245 224.436 473.335 222.943 476.645 222.659L475.532 228.124L479.676 222.739C479.688 222.739 479.701 222.741 479.713 222.743C481.471 222.995 483.163 223.59 484.692 224.496C486.221 225.401 487.557 226.6 488.623 228.022C489.689 229.444 490.465 231.063 490.906 232.785C491.347 234.507 491.445 236.3 491.194 238.06C490.943 239.82 490.348 241.514 489.443 243.044C488.538 244.574 487.341 245.91 485.92 246.977C484.499 248.044 482.881 248.821 481.16 249.262C479.439 249.704 477.648 249.802 475.89 249.551Z" stroke="#3F3D56" stroke-width="0.650123" stroke-miterlimit="10"/>
<path d="M477.179 278.466C475.267 280.911 472.574 282.625 469.55 283.319C466.527 284.013 463.356 283.646 460.571 282.278C457.786 280.911 455.555 278.626 454.253 275.808C452.951 272.99 452.657 269.81 453.42 266.8C454.183 263.791 455.956 261.136 458.443 259.28C460.93 257.424 463.979 256.48 467.079 256.607C470.179 256.734 473.141 257.923 475.468 259.976C477.795 262.029 479.347 264.82 479.862 267.882L470.274 273.056L479.808 272.681C479.407 274.792 478.505 276.776 477.179 278.466Z" fill="#57B894"/>
<path d="M477.53 276.62C475.619 279.065 472.926 280.779 469.902 281.473C466.878 282.167 463.708 281.8 460.923 280.432C458.138 279.065 455.907 276.781 454.605 273.963C453.303 271.145 453.009 267.964 453.772 264.955C454.535 261.945 456.308 259.29 458.795 257.434C461.282 255.578 464.331 254.634 467.431 254.761C470.531 254.888 473.492 256.077 475.82 258.13C478.147 260.183 479.698 262.974 480.214 266.036L470.626 271.211L480.16 270.835C479.759 272.947 478.857 274.93 477.53 276.62Z" stroke="#3F3D56" stroke-width="0.650123" stroke-miterlimit="10"/>
<path d="M148.867 4.87927H104.012V54.9743H148.867V4.87927Z" fill="#6EBDF3"/>
<path d="M156.668 0.325073H111.812V50.4201H156.668V0.325073Z" stroke="#3F3D56" stroke-width="0.650123" stroke-miterlimit="10"/>
<path d="M44.855 61.4802H0V111.575H44.855V61.4802Z" fill="#F2F2F2"/>
<path d="M52.6559 56.9261H7.80087V107.021H52.6559V56.9261Z" stroke="#3F3D56" stroke-width="0.650123" stroke-miterlimit="10"/>
<path d="M247.028 84.2507H202.173V134.346H247.028V84.2507Z" fill="#6EBDF3"/>
<path d="M254.828 79.6967H209.973V129.792H254.828V79.6967Z" stroke="#3F3D56" stroke-width="0.650123" stroke-miterlimit="10"/>
<path d="M318.211 371.223C349.266 371.223 374.442 342.649 374.442 307.401C374.442 272.153 349.266 243.579 318.211 243.579C287.155 243.579 261.979 272.153 261.979 307.401C261.979 342.649 287.155 371.223 318.211 371.223Z" fill="#36334A"/>
<path d="M390.39 95.0335C376.877 100.934 362.143 103.488 347.435 102.48C351.213 99.7831 353.637 95.4524 354.615 90.9118C355.592 86.3711 355.22 81.6257 354.21 77.0921C354.026 76.5745 354.037 76.0074 354.241 75.4972C354.447 75.241 354.709 75.0345 355.006 74.8929C355.303 74.7513 355.628 74.6782 355.957 74.679C361.653 73.8854 377.968 70.44 382.306 75.3201C384.361 77.6325 383.574 82.1244 384.325 84.9489C384.635 86.1154 388.599 95.8179 390.39 95.0335Z" fill="#FBBEBE"/>
<path opacity="0.1" d="M390.39 95.0335C376.877 100.934 362.143 103.488 347.435 102.48C351.213 99.7831 353.637 95.4524 354.615 90.9118C355.592 86.3711 355.22 81.6257 354.21 77.0921C354.026 76.5745 354.037 76.0074 354.241 75.4972C354.447 75.241 354.709 75.0345 355.006 74.8929C355.303 74.7513 355.628 74.6782 355.957 74.679C361.653 73.8854 377.968 70.44 382.306 75.3201C384.361 77.6325 383.574 82.1244 384.325 84.9489C384.635 86.1154 388.599 95.8179 390.39 95.0335Z" fill="black"/>
<path d="M342.913 191.922L258.404 194.525C258.404 194.525 183.646 267.39 245.402 289.51C245.402 289.51 321.461 301.871 339.663 287.558C339.663 287.558 362.415 197.778 342.913 191.922ZM339.013 215.994L248.653 221.849C248.653 221.849 255.154 199.73 281.156 199.73C307.159 199.73 336.413 193.874 339.013 207.537C341.613 221.199 339.013 215.994 339.013 215.994Z" fill="#3F3D56"/>
<path d="M276.29 180.25C272.075 179.605 267.492 179.232 263.8 181.368C262.571 182.137 261.43 183.038 260.397 184.055C258.912 185.419 257.439 186.796 255.977 188.184C254.907 189.199 253.789 190.319 253.515 191.768C252.95 194.75 256.392 197.152 259.423 197.035C262.454 196.919 265.173 195.252 268.035 194.248C273.799 192.227 294.997 195.683 296.155 189.471C297.628 181.573 280.978 180.996 276.29 180.25Z" fill="#FBBEBE"/>
<path d="M315.796 175.262C310.284 178.064 304.282 179.769 298.122 180.285C297.16 180.301 296.21 180.503 295.325 180.88C294.79 181.21 294.38 181.71 294.16 182.299C291.995 186.837 290.657 191.725 290.209 196.733C290.151 196.974 290.162 197.226 290.243 197.46C290.324 197.693 290.471 197.899 290.665 198.052C291.258 198.349 291.914 198.496 292.576 198.481C302.69 199.123 312.837 199.468 323.018 199.516C323.467 199.551 323.919 199.489 324.343 199.336C324.49 199.257 324.619 199.15 324.724 199.02C324.829 198.891 324.906 198.741 324.952 198.581C327.341 192.637 328.467 186.26 328.259 179.857C327.993 172.316 325.786 169.955 315.796 175.262Z" fill="#D7E5F2"/>
<path opacity="0.1" d="M315.796 175.262C310.284 178.064 304.282 179.769 298.122 180.285C297.16 180.301 296.21 180.503 295.325 180.88C294.79 181.21 294.38 181.71 294.16 182.299C291.995 186.837 290.657 191.725 290.209 196.733C290.151 196.974 290.162 197.226 290.243 197.46C290.324 197.693 290.471 197.899 290.665 198.052C291.258 198.349 291.914 198.496 292.576 198.481C302.69 199.123 312.837 199.468 323.018 199.516C323.467 199.551 323.919 199.489 324.343 199.336C324.49 199.257 324.619 199.15 324.724 199.02C324.829 198.891 324.906 198.741 324.952 198.581C327.341 192.637 328.467 186.26 328.259 179.857C327.993 172.316 325.786 169.955 315.796 175.262Z" fill="black"/>
<path d="M429.373 243.319L318.211 239.415L344.213 129.466C344.213 129.466 448.225 121.659 445.625 148.333C443.025 175.007 429.373 243.319 429.373 243.319Z" fill="#36334A"/>
<path d="M322.058 295.877C322.058 295.877 255.154 307.727 231.101 272.595C207.048 237.463 322.111 256.33 322.111 256.33L331.862 283.004L322.058 295.877Z" fill="#36334A"/>
<path d="M301.959 445C318.833 445 332.512 431.31 332.512 414.422C332.512 397.535 318.833 383.845 301.959 383.845C285.085 383.845 271.405 397.535 271.405 414.422C271.405 431.31 285.085 445 301.959 445Z" fill="#36334A"/>
<path d="M304.884 436.542C315.475 436.542 324.061 426.639 324.061 414.422C324.061 402.206 315.475 392.302 304.884 392.302C294.293 392.302 285.707 402.206 285.707 414.422C285.707 426.639 294.293 436.542 304.884 436.542Z" fill="#3F3D56"/>
<path d="M469.027 126.213C469.027 126.213 443.675 111.9 442.374 145.731L420.922 303.172H430.023L454.726 134.671C454.726 134.671 467.077 136.623 469.027 136.623C470.978 136.623 469.027 126.213 469.027 126.213Z" fill="#3F3D56"/>
<path d="M494.29 143.585C494.058 144.421 493.65 145.197 493.094 145.862C492.538 146.527 491.846 147.065 491.065 147.441C490.284 147.817 489.431 148.021 488.565 148.04C487.699 148.059 486.838 147.892 486.041 147.551L456.631 134.967L461.966 123.207L490.952 136.419C492.27 137.02 493.33 138.072 493.942 139.385C494.554 140.699 494.677 142.188 494.29 143.585Z" fill="#36334A"/>
<path d="M315.61 292.113C315.61 292.113 268.805 286.908 255.804 331.798C242.802 376.689 244.102 411.17 233.051 408.567C222 405.965 198.597 396.857 198.597 396.857L200.547 410.519C200.547 410.519 241.502 431.338 248.003 409.218C254.503 387.098 258.404 305.775 295.458 307.727C332.512 309.678 339.013 305.775 339.013 305.775L315.61 292.113Z" fill="#3F3D56"/>
<path d="M226.55 270.643C226.55 270.643 190.146 275.197 175.845 301.871C161.543 328.545 154.392 376.689 154.392 376.689H168.044C168.044 376.689 175.845 281.053 216.799 286.257L226.55 270.643Z" fill="#3F3D56"/>
<path d="M201.848 419.627L143.991 383.845C143.991 383.845 140.741 370.833 177.795 365.629C177.795 365.629 247.851 390.149 241.101 399.358C234.351 408.567 211.599 422.88 201.848 419.627Z" fill="#36334A"/>
<path d="M291.558 303.173V379.291H300.009V301.871L291.558 303.173Z" fill="#3F3D56"/>
<path d="M303.909 350.015C303.909 350.015 320.161 413.772 309.76 422.88C309.76 422.88 296.108 382.544 285.707 387.749L288.957 350.015H303.909Z" fill="#36334A"/>
<path d="M366.966 84.5759C380.968 84.5759 392.319 73.2161 392.319 59.2031C392.319 45.1901 380.968 33.8303 366.966 33.8303C352.964 33.8303 341.613 45.1901 341.613 59.2031C341.613 73.2161 352.964 84.5759 366.966 84.5759Z" fill="#FBBEBE"/>
<path d="M362.171 97.6595C372.51 99.4176 381.446 87.3874 391.796 89.0792C394.047 89.5404 396.201 90.3886 398.162 91.5862C405.786 95.903 412.43 101.76 417.671 108.784C422.911 115.809 426.634 123.848 428.604 132.39C429.774 137.608 430.225 143.267 428.023 148.139C426.853 150.73 425 152.942 423.149 155.097C416.262 163.112 408.705 171.1 398.879 174.978C397.919 178.305 398.841 181.907 399.992 185.172C404.797 198.808 397.156 213.502 396.766 227.955C396.699 230.427 396.773 233.136 395.229 235.067C393.514 237.21 390.453 237.59 387.714 237.745C362.611 239.16 337.543 235.306 312.696 231.463C312.045 231.419 311.417 231.206 310.873 230.846C310.056 230.193 309.933 229.026 309.758 227.994C308.837 222.533 313.682 218.105 311.385 213.067C307.435 204.405 316.051 194.932 318.536 185.742C321.021 176.551 321.999 174.935 323.736 165.574C324.386 162.074 322.515 151.522 323.086 148.008C324.952 136.531 323.541 123.457 329.587 113.527C333.219 107.561 332.277 102.922 338.759 100.328C345.598 97.5904 354.854 98.5118 362.171 97.6595Z" fill="#D7E5F2"/>
<path d="M247.674 248.974C240.106 250.434 232.07 251.828 226.246 256.88C222.688 259.966 220.297 264.149 217.975 268.247L194.28 310.058C187.053 322.809 179.823 335.568 173.27 348.679C172.698 349.633 172.362 350.71 172.291 351.82C172.317 353.385 173.368 354.73 174.444 355.865C178.182 359.744 182.774 362.694 187.853 364.482C192.933 366.269 198.359 366.844 203.7 366.16C205.33 357.714 213.352 352.132 217.284 344.483C219.444 340.28 220.312 335.554 221.707 331.038C226.908 314.194 239.256 300.669 251.244 287.751C256.91 281.646 262.71 275.435 270.01 271.429C278.574 266.73 288.512 265.429 298.082 263.477C307.653 261.525 317.562 258.566 324.334 251.522C327.209 248.488 329.373 244.853 330.671 240.879C331.969 236.905 332.369 232.692 331.84 228.544C325.709 228.115 318.885 227.317 312.971 229.29C306.102 231.582 299.458 234.715 292.579 237.056C277.901 242.052 262.897 246.034 247.674 248.974Z" fill="#696880"/>
<path opacity="0.1" d="M247.674 248.974C240.106 250.434 232.07 251.828 226.246 256.88C222.688 259.966 220.297 264.149 217.975 268.247L194.28 310.058C187.053 322.809 179.823 335.568 173.27 348.679C172.698 349.633 172.362 350.71 172.291 351.82C172.317 353.385 173.368 354.73 174.444 355.865C178.182 359.744 182.774 362.694 187.853 364.482C192.933 366.269 198.359 366.844 203.7 366.16C205.33 357.714 213.352 352.132 217.284 344.483C219.444 340.28 220.312 335.554 221.707 331.038C226.908 314.194 239.256 300.669 251.244 287.751C256.91 281.646 262.71 275.435 270.01 271.429C278.574 266.73 288.512 265.429 298.082 263.477C307.653 261.525 317.562 258.566 324.334 251.522C327.209 248.488 329.373 244.853 330.671 240.879C331.969 236.905 332.369 232.692 331.84 228.544C325.709 228.115 318.885 227.317 312.971 229.29C306.102 231.582 299.458 234.715 292.579 237.056C277.901 242.052 262.897 246.034 247.674 248.974Z" fill="black"/>
<path d="M145.517 381.554C144.673 382.159 144.024 382.997 143.65 383.966C142.79 386.901 146.459 388.968 149.395 389.814C155.992 391.714 163.031 393.617 169.611 391.66C173.646 390.459 177.157 387.886 181.166 386.601C187.116 384.693 193.56 385.776 199.711 386.875C201.085 379.137 200.16 371.165 197.052 363.947C195.079 359.392 187.18 357.175 182.477 356.975C177.337 356.757 175.551 360.552 172.584 364.046C165.357 372.556 153.843 374.528 145.517 381.554Z" fill="#3F3D56"/>
<path d="M252.504 261.436C248.867 262.884 245.138 264.391 242.284 267.073C239.272 269.904 237.509 273.789 235.902 277.599C231.15 288.86 227.105 300.407 223.79 312.173C222.115 318.118 220.622 324.131 218.366 329.88C213.862 341.354 206.22 352.343 206.938 364.649C206.934 366.145 207.336 367.613 208.101 368.897C209.121 370.378 210.857 371.164 212.506 371.881L221.15 375.637C225.788 377.653 231.448 379.591 235.592 376.691C238.366 374.75 239.473 371.23 240.31 367.948C243.331 356.097 245.198 343.786 250.611 332.821C256.73 320.426 267.075 310.411 272.549 297.718C273.324 295.922 274.058 293.995 275.582 292.769C276.84 291.756 278.472 291.361 280.046 291.003C312.512 283.604 345.709 279.558 377.915 271.098C382.493 269.895 387.283 268.468 390.55 265.039C395.079 260.284 395.482 253.058 395.627 246.491C395.718 242.376 395.699 237.905 393.194 234.641C390.369 230.96 385.303 229.988 380.691 229.502C363 227.64 346.683 230.574 329.259 232.723C313.317 234.689 297.261 243.694 282.388 249.578C272.423 253.52 262.461 257.473 252.504 261.436Z" fill="#696880"/>
<path d="M212.502 379.051C210.071 384.828 207.448 390.863 202.516 394.729C200.456 396.345 197.792 397.961 197.709 400.579C197.622 403.349 200.529 405.177 203.133 406.117C209.766 408.512 217.315 409.024 223.787 406.222C228.213 404.305 231.864 400.992 235.426 397.738C236.499 396.758 237.61 395.724 238.113 394.359C238.456 393.21 238.558 392.002 238.415 390.811C237.988 383.584 236.7 376.433 234.578 369.511C234.413 368.967 220.426 367.222 219.186 367.546C215.28 368.567 214.009 375.472 212.502 379.051Z" fill="#3F3D56"/>
<path d="M430.023 211.44L345.514 214.042C345.514 214.042 270.755 286.908 332.512 309.028C332.512 309.028 408.571 321.389 426.773 307.076C426.773 307.076 449.525 217.295 430.023 211.44ZM426.123 235.512L335.763 241.367C335.763 241.367 342.263 219.247 368.266 219.247C394.269 219.247 423.522 213.392 426.123 227.054C428.723 240.716 426.123 235.512 426.123 235.512Z" fill="#3F3D56"/>
<path d="M410.846 445C457.699 445 495.68 401.891 495.68 348.713C495.68 295.536 457.699 252.427 410.846 252.427C363.993 252.427 326.011 295.536 326.011 348.713C326.011 401.891 363.993 445 410.846 445Z" fill="#36334A"/>
<path d="M414.746 420.278C450.11 420.278 478.779 388.237 478.779 348.713C478.779 309.19 450.11 277.149 414.746 277.149C379.382 277.149 350.714 309.19 350.714 348.713C350.714 388.237 379.382 420.278 414.746 420.278Z" fill="#3F3D56"/>
<path d="M431.323 347.738C431.321 346.489 431.197 345.244 430.952 344.02L478.779 320.088L475.528 312.931L427.216 336.487C426.729 335.985 426.191 335.535 425.611 335.144L425.648 335.152L439.774 264.788L427.278 264.504L418.972 333.75L419.768 333.917C419.123 334.05 418.497 334.264 417.905 334.554L376.122 291.631L370.216 299.92L413.146 339.446C412.069 341.515 411.423 343.781 411.245 346.107L350.714 370.833L349.414 381.243L412.51 354.686C413.099 356.147 413.933 357.496 414.976 358.675L395.569 424.832H402.72L419.01 361.367C419.733 361.6 420.487 361.721 421.247 361.725C422.714 361.712 424.147 361.282 425.379 360.486L459.276 405.314L469.677 398.158L429.96 354.74C430.872 352.519 431.335 350.139 431.323 347.738Z" fill="#36334A"/>
<path d="M337.503 43.1395C338.649 40.2614 342.342 39.0709 343.552 36.2193C344.853 33.1525 342.813 29.2505 344.583 26.4287C346.367 23.5857 350.524 23.9188 353.833 24.4681C357.739 25.1166 361.893 25.5527 365.537 24.0013C367.158 23.3114 368.596 22.2578 370.166 21.4585C372.66 20.1923 375.438 19.5879 378.233 19.7032C378.864 19.6888 379.488 19.8377 380.044 20.1355C380.573 20.5176 380.98 21.0443 381.218 21.6524C382.358 24.1231 382.52 27.207 384.584 28.9792C385.575 29.8304 386.861 30.2316 388.048 30.7766C390.813 32.112 393.102 34.2641 394.606 36.9426C396.11 39.621 396.756 42.6967 396.458 45.7544C396.186 47.1705 396.015 48.604 395.947 50.0443C396.027 53.2078 398.094 56.368 397.038 59.3511C396.254 61.5684 393.958 62.8809 391.709 63.5645C391.07 63.8247 390.361 63.8606 389.699 63.6663C388.545 63.1985 388.315 61.715 387.946 60.525C387.425 58.967 386.421 57.6162 385.079 56.6699C383.737 55.7235 382.128 55.2311 380.487 55.2644C377.864 55.3759 375.211 56.8498 372.737 55.9729C371.521 55.5419 370.57 54.6014 369.598 53.7527C367.362 51.7997 364.716 50.1749 361.777 49.7591C358.838 49.3434 355.583 50.3353 353.852 52.7485C353.153 53.7231 352.729 54.8704 352.063 55.8674C346.071 64.8252 335.03 49.3553 337.503 43.1395Z" fill="#36334A"/>
<path d="M340.638 216.319H295.783V266.414H340.638V216.319Z" fill="#6EBDF3"/>
<path d="M351.011 197.769C349.899 197.624 348.768 197.754 347.716 198.145C346.665 198.537 345.725 199.18 344.978 200.017C339.289 205.204 333.26 211.05 332.229 218.682C332.071 219.378 332.154 220.107 332.465 220.749C333.013 221.646 334.217 221.845 335.267 221.863C337.925 221.889 340.558 221.347 342.99 220.272C345.421 219.198 347.595 217.615 349.366 215.631C350.342 214.523 351.237 213.255 352.575 212.631C353.797 212.176 355.109 212.013 356.406 212.156C359.975 212.273 368.124 214.101 371.235 212.329C374.507 210.466 373.607 204.626 372.08 201.811C368.449 195.118 357.192 197.702 351.011 197.769Z" fill="#FBBEBE"/>
<path d="M430.412 141.561C432.598 148.598 431.318 156.524 434.415 163.21C436.471 167.648 440.337 171.225 441.534 175.968C442.665 180.449 441.15 185.279 438.491 189.059C435.833 192.839 432.132 195.742 428.42 198.493C424.356 201.505 420.135 204.445 415.346 206.074C410.57 207.698 405.452 207.944 400.412 208.175L367.009 209.708L360.858 191.25L382.622 182.718C384.8 181.864 387.02 181.001 389.353 180.828C393.381 180.53 398.294 182.01 400.881 178.905C401.703 177.764 402.226 176.435 402.402 175.04C404.512 164.196 402.676 152.724 405.925 142.166C407.533 136.94 412.173 126.457 418.501 125.535C425.208 124.558 428.896 136.677 430.412 141.561Z" fill="#D7E5F2"/>
</g>
<defs>
<clipPath id="clip0_31_10">
<rect width="528" height="445" fill="white"/>
</clipPath>
</defs>
</svg>
